<?xml version="1.0" standalone="no"?>
<!DOCTYPE svg PUBLIC "-//W3C//DTD SVG 20010904//EN"
 "http://www.w3.org/TR/2001/REC-SVG-20010904/DTD/svg10.dtd">
<svg version="1.0" xmlns="http://www.w3.org/2000/svg"
 width="1104.000000pt" height="1104.000000pt" viewBox="0 0 1104.000000 1104.000000"
 preserveAspectRatio="xMidYMid meet">
<metadata>
Created by potrace 1.11, written by Peter Selinger 2001-2013
</metadata>
<g transform="translate(0.000000,1104.000000) scale(0.100000,-0.100000)"
fill="#000000" stroke="none">
<path d="M5495 11015 c-49 -7 -121 -25 -160 -40 -38 -15 -127 -46 -196 -70
-235 -82 -266 -103 -302 -205 -44 -126 -63 -226 -77 -410 -5 -74 -21 -202 -35
-284 -14 -83 -25 -169 -25 -193 0 -34 -4 -43 -17 -43 -15 0 -14 -3 5 -22 12
-13 31 -34 41 -47 l18 -25 19 22 c23 27 61 28 94 2 14 -11 31 -20 38 -20 6 0
12 -4 12 -10 0 -5 12 -21 27 -36 15 -15 23 -29 17 -31 -16 -5 -2 -64 16 -73 8
-4 25 -12 37 -18 13 -7 34 -12 48 -12 17 0 23 -4 19 -15 -7 -16 34 -30 66 -22
11 3 23 1 26 -4 3 -5 0 -9 -7 -9 -7 0 -10 -3 -7 -6 3 -3 15 0 26 7 16 10 23
10 36 -3 14 -14 14 -17 0 -22 -14 -5 -14 -8 0 -27 8 -12 12 -28 9 -37 -4 -10
-2 -13 5 -8 13 8 6 -20 -9 -40 -13 -17 39 -38 57 -23 8 6 21 9 29 5 8 -3 15
-1 15 4 0 6 5 10 11 10 5 0 34 11 62 25 51 24 71 26 94 12 6 -4 18 -1 25 7 8
7 24 17 36 20 12 4 22 12 22 17 0 5 9 9 19 9 11 0 26 6 33 13 7 7 20 16 28 20
8 4 30 16 48 27 l34 21 5 -21 c4 -14 14 -20 35 -20 18 0 38 -9 52 -25 13 -14
28 -24 32 -23 13 4 74 -23 74 -32 0 -4 13 -13 30 -20 33 -14 100 -6 100 12 0
6 -10 8 -22 5 -21 -5 -21 -5 -6 7 10 7 15 16 12 19 -9 8 17 33 44 41 14 5 26
21 34 49 6 23 11 45 10 50 -3 13 35 7 47 -7 7 -8 21 -12 32 -9 16 5 18 8 7 14
-14 9 -12 9 37 13 17 2 38 4 49 4 12 1 16 7 12 17 -3 8 -2 15 3 15 14 0 10 58
-5 71 -8 6 -14 19 -14 28 0 23 41 61 66 61 11 0 26 6 32 12 10 10 15 10 22 -2
8 -13 10 -12 10 2 0 31 43 15 62 -23 15 -30 24 -32 19 -5 -4 21 31 56 57 56
l27 0 -23 18 c-22 17 -22 19 -8 47 21 41 20 87 -3 112 -33 35 -52 122 -66 311
-22 287 -67 429 -159 508 -50 43 -217 128 -294 150 -31 9 -88 31 -127 50 -133
64 -231 76 -420 49z m88 -232 c-2 -9 16 -13 63 -13 79 0 126 -24 143 -71 9
-25 7 -33 -9 -49 -11 -11 -25 -20 -32 -20 -6 0 -41 -14 -77 -32 l-65 -32 70
-23 c84 -28 363 -165 347 -170 -6 -2 -26 3 -44 13 -18 9 -47 17 -64 18 -18 2
-47 9 -65 16 -27 11 -33 11 -40 -1 -5 -8 -50 -81 -101 -162 l-93 -148 -18 23
c-37 47 -69 108 -66 125 3 13 15 2 43 -40 21 -32 41 -54 45 -50 4 4 42 64 85
133 43 69 82 128 87 131 14 9 -154 59 -199 59 l-40 0 -6 -72 c-3 -40 -12 -86
-21 -103 -9 -16 -16 -46 -16 -65 0 -19 -5 -42 -10 -50 -7 -11 -10 0 -11 38 -3
75 -3 76 -16 87 -40 34 -228 315 -217 325 12 10 143 50 166 50 28 0 21 -19 -9
-26 -16 -3 -49 -12 -75 -21 -45 -14 -47 -16 -36 -36 17 -33 169 -242 178 -245
4 -2 8 37 9 85 0 48 4 118 7 156 l7 67 -27 0 c-36 0 -36 41 0 61 14 7 30 24
35 37 7 19 15 23 41 20 20 -2 32 -8 31 -15z m339 -99 c55 -18 57 -12 -25 -133
-32 -49 -52 -70 -59 -63 -7 7 7 36 42 87 28 42 50 78 48 80 -2 2 -26 9 -53 16
-28 6 -56 13 -62 15 -7 2 -13 9 -13 15 0 13 50 6 122 -17z"/>
<path d="M5609 10703 c-22 -3 -28 -11 -33 -45 -4 -22 -5 -42 -3 -45 3 -2 39
14 82 35 43 22 73 42 68 45 -15 9 -84 15 -114 10z"/>
<path d="M6581 9686 c-7 -8 -27 -22 -46 -31 l-35 -16 0 -121 c0 -133 15 -152
25 -33 13 154 20 168 25 52 l5 -108 25 48 c14 26 27 50 30 53 9 9 30 99 29
128 0 24 -1 24 -8 7 -8 -19 -9 -18 -12 4 -5 29 -22 37 -38 17z"/>
<path d="M4592 9660 c0 -19 2 -27 5 -17 2 9 2 25 0 35 -3 9 -5 1 -5 -18z"/>
<path d="M4610 9620 c0 -74 35 -194 50 -170 6 9 9 9 13 -1 3 -8 6 27 6 78 1
50 6 95 11 98 6 4 10 -6 10 -24 0 -16 6 -32 13 -34 9 -4 9 -7 0 -14 -18 -13
-9 -114 12 -147 10 -15 26 -31 37 -37 17 -9 18 -5 17 68 -1 43 -7 94 -15 114
-7 21 -10 39 -8 42 8 8 -29 47 -43 47 -8 0 -31 11 -53 25 -22 14 -42 25 -45
25 -3 0 -5 -31 -5 -70z"/>
<path d="M5453 9235 c-11 -8 -23 -12 -25 -9 -3 2 -8 -9 -11 -26 -4 -16 -12
-30 -19 -30 -18 0 -88 -89 -88 -111 0 -9 6 -20 13 -22 6 -3 -1 -6 -17 -6 -24
-1 -27 -4 -23 -22 4 -14 -1 -23 -18 -31 -15 -7 -21 -16 -18 -29 3 -10 0 -19
-6 -19 -22 0 -11 -28 14 -34 24 -6 65 11 65 26 0 5 7 8 15 8 8 0 15 5 15 10 0
6 7 10 15 10 8 0 15 6 15 14 0 21 9 24 73 31 37 4 57 3 57 -4 0 -6 6 -11 14
-11 8 0 17 -9 21 -20 3 -11 20 -33 36 -50 30 -30 46 -39 34 -20 -4 6 10 10 34
10 30 0 44 6 56 23 8 12 19 21 23 20 4 -1 6 4 4 11 -1 9 7 12 25 9 23 -3 24
-2 8 5 -17 8 -14 10 18 16 21 4 35 11 32 15 -3 5 2 11 10 14 9 4 12 1 9 -7 -4
-9 4 -13 25 -12 17 1 31 4 31 9 0 4 5 7 10 7 6 0 10 -5 10 -11 0 -16 26 -39
35 -31 4 4 4 -4 0 -17 -4 -14 -3 -21 2 -18 13 8 85 -42 78 -54 -4 -5 -2 -9 4
-9 5 0 10 18 9 39 0 22 2 44 6 49 3 5 -1 13 -10 16 -12 5 -15 14 -10 37 4 21
1 31 -9 35 -8 4 -15 15 -15 25 0 11 -11 24 -25 31 -13 6 -22 15 -19 20 3 4 -2
11 -10 14 -9 3 -36 26 -61 50 -65 61 -80 58 -49 -10 23 -51 31 -146 12 -146
-5 0 -8 7 -8 16 0 8 -4 12 -10 9 -5 -3 -10 -2 -10 3 0 10 -34 8 -68 -2 -14 -5
-22 -2 -26 11 -4 13 -16 18 -43 18 -21 0 -44 -4 -50 -8 -7 -5 -13 -4 -13 2 0
7 -8 7 -27 0 -20 -7 -28 -6 -35 3 -6 10 -10 10 -16 1 -4 -6 -18 -11 -32 -10
-14 0 -33 -3 -42 -7 -16 -7 -18 -2 -18 35 0 24 7 66 15 93 8 27 14 51 12 52
-2 2 -12 -3 -24 -11z m577 -285 c0 -5 -2 -10 -4 -10 -3 0 -8 5 -11 10 -3 6 -1
10 4 10 6 0 11 -4 11 -10z"/>
<path d="M4780 9123 c0 -4 5 -15 10 -23 8 -13 10 -13 10 2 0 9 -4 20 -10 23
-5 3 -10 3 -10 -2z"/>
<path d="M6466 9059 c-2 -8 -11 -43 -21 -79 -30 -114 -66 -213 -106 -290 -40
-76 -48 -113 -28 -126 24 -14 3 -120 -40 -207 -42 -84 -142 -218 -149 -198 -2
6 -9 11 -15 11 -32 1 -37 15 -22 66 8 27 15 59 15 72 0 13 4 21 9 17 6 -3 15
4 21 15 7 13 7 20 0 20 -5 0 -10 -4 -10 -10 0 -5 -7 -7 -15 -4 -11 5 -12 9 -2
19 7 7 17 12 22 12 6 -1 10 6 10 16 0 10 19 39 43 64 23 25 42 49 42 53 0 10
-35 21 -78 26 -31 4 -32 3 -26 -21 5 -22 2 -27 -25 -38 -18 -7 -29 -17 -27
-24 3 -8 -3 -13 -16 -13 -18 0 -19 -2 -7 -16 11 -13 11 -15 -2 -13 -16 2 -89
-28 -89 -37 0 -3 7 -4 15 0 8 3 15 3 15 0 0 -3 -20 -14 -44 -25 -40 -17 -91
-19 -115 -4 -4 2 -31 4 -61 6 -30 1 -66 7 -79 13 -18 8 -26 7 -35 -4 -8 -11
-40 -16 -126 -18 -72 -3 -118 -8 -122 -15 -5 -8 -8 -7 -8 3 0 9 -9 16 -19 17
-24 2 -67 43 -63 60 1 6 -8 13 -20 15 -15 2 -23 10 -23 23 0 14 -6 20 -22 19
-13 0 -23 4 -23 9 0 5 -8 16 -17 23 -17 12 -16 13 7 14 15 0 31 5 38 12 15 15
16 58 1 58 -5 0 -7 -4 -4 -10 3 -5 -3 -10 -14 -10 -11 0 -23 5 -26 10 -4 7
-12 7 -18 2 -22 -16 -95 -35 -111 -29 -9 4 -16 1 -16 -5 0 -7 -6 -4 -13 6 -13
18 -14 18 -21 1 -4 -11 0 -22 10 -29 15 -11 15 -14 -1 -29 -15 -16 -15 -17 3
-17 14 0 19 -7 19 -32 0 -18 -7 -38 -15 -44 -14 -10 -12 -13 7 -19 18 -5 20
-9 10 -16 -11 -7 -10 -11 6 -24 19 -15 19 -15 -8 -9 -22 5 -26 3 -21 -10 3 -9
13 -16 20 -16 8 0 19 -11 24 -25 5 -14 15 -25 22 -25 9 0 10 -2 2 -8 -13 -8
-2 -46 15 -57 19 -11 12 -28 -9 -22 -11 3 -22 1 -25 -4 -3 -4 -12 -6 -20 -3
-8 4 -12 10 -9 15 3 5 -2 12 -11 15 -8 4 -14 14 -13 23 2 9 -5 17 -17 19 -27
5 -96 101 -141 196 -40 85 -41 104 -13 308 12 89 11 104 -6 173 l-18 76 -56
-6 c-87 -8 -436 -25 -531 -25 -100 0 -119 -10 -154 -78 -59 -117 -70 -174 -68
-352 2 -213 -3 -231 -75 -277 -31 -20 -221 -117 -422 -216 -343 -169 -370
-185 -427 -241 -45 -46 -66 -76 -83 -123 -23 -62 -115 -230 -204 -373 -99
-159 -294 -710 -352 -993 -14 -67 -41 -192 -60 -277 -19 -85 -40 -195 -46
-245 -5 -49 -26 -153 -45 -230 -27 -108 -37 -175 -45 -290 -5 -82 -13 -168
-19 -190 -5 -22 -10 -53 -10 -69 0 -33 -18 -37 184 38 181 68 215 87 288 163
67 71 125 158 203 308 32 61 66 121 75 135 25 37 214 423 252 515 18 44 61
136 95 206 50 101 68 128 90 137 109 42 410 102 678 136 220 28 526 35 1230
29 277 -2 278 -2 292 -16 7 -8 15 -112 22 -307 7 -162 13 -311 16 -330 2 -19
7 -92 11 -162 5 -103 10 -128 22 -128 12 0 12 3 2 15 -10 12 -9 15 6 15 15 0
16 2 5 9 -7 5 -10 14 -7 20 4 6 1 11 -6 11 -9 0 -9 3 2 10 9 6 10 10 3 10 -14
0 -13 40 2 40 5 0 3 5 -5 10 -13 9 -13 11 0 20 9 5 10 10 3 10 -6 0 -10 11 -8
25 1 14 -1 25 -4 25 -4 0 -7 9 -7 20 0 11 5 20 11 20 6 0 7 3 0 8 -14 10 -15
42 -1 42 6 0 4 5 -4 10 -12 8 -12 10 -1 10 10 0 11 3 2 14 -9 11 -9 15 1 19 9
4 8 6 -3 6 -21 1 -20 33 1 43 12 5 11 7 -4 7 -15 1 -16 4 -6 16 10 12 10 15
-1 15 -11 0 -11 2 1 10 12 8 12 10 1 10 -11 0 -11 3 -1 15 10 12 10 15 -1 15
-12 0 -12 2 0 9 11 7 11 9 0 14 -12 4 -11 7 1 16 13 10 13 11 0 11 -13 0 -13
1 0 10 12 8 12 10 -5 10 -20 1 -20 1 -1 15 20 15 20 15 0 15 -16 0 -17 2 -4
10 12 8 12 10 1 10 -11 0 -11 3 -1 15 10 12 10 15 -1 15 -11 0 -11 2 1 10 12
8 12 10 1 10 -11 0 -11 3 -1 15 10 12 10 15 -1 15 -12 0 -12 2 0 9 11 7 11 9
0 14 -10 4 -10 6 -1 6 6 1 12 6 12 12 0 5 -4 7 -10 4 -5 -3 -10 -2 -10 4 0 5
6 12 13 14 9 4 8 6 -2 6 -11 1 -11 4 -1 16 10 12 10 15 -1 15 -11 0 -11 2 1
10 12 8 12 10 -5 10 -15 0 -17 2 -6 9 7 5 10 14 7 20 -4 6 -1 11 6 12 7 0 4 4
-7 9 -13 6 -15 9 -5 9 13 1 13 2 0 11 -13 9 -13 11 0 20 13 9 13 10 0 10 -12
0 -13 2 -1 9 11 7 11 9 0 14 -12 4 -11 7 1 16 13 10 13 11 0 11 -13 0 -13 1 0
10 10 6 11 10 3 10 -7 0 -13 9 -13 20 0 11 6 20 13 20 8 0 7 4 -3 10 -10 6
-11 10 -2 10 6 0 12 5 12 11 0 5 -4 7 -10 4 -5 -3 -10 -2 -10 4 0 5 6 12 13
14 6 3 3 6 -8 7 l-20 1 20 9 c19 8 19 9 1 9 -20 1 -20 1 0 16 19 15 19 15 -1
9 -20 -6 -20 -5 -1 10 20 16 20 16 0 16 -14 0 -16 2 -5 9 11 7 11 9 0 14 -12
4 -11 7 1 16 13 10 13 11 0 11 -12 0 -13 2 -1 9 11 7 11 9 0 14 -10 4 -10 6
-1 6 6 1 12 6 12 12 0 5 -4 7 -10 4 -5 -3 -10 -1 -10 4 0 6 6 11 13 11 8 0 7
4 -3 10 -13 9 -13 10 0 10 12 0 13 2 1 9 -11 7 -11 9 0 14 12 4 11 7 -1 16
-13 10 -13 11 0 12 10 0 8 3 -5 9 l-20 9 20 0 c11 1 16 4 10 9 -6 4 -10 17 -9
30 1 12 -4 22 -10 22 -6 0 -4 5 4 10 12 8 12 10 1 10 -11 0 -11 3 -1 15 10 12
10 15 -1 15 -11 0 -11 2 1 10 13 9 13 10 0 10 -13 0 -13 1 0 10 13 9 13 10 0
10 -13 0 -13 1 0 10 13 9 13 11 0 20 -13 9 -13 10 0 11 10 0 9 3 -4 8 -20 8
-20 8 0 13 11 3 25 -1 32 -9 10 -10 10 -13 0 -13 -9 0 -9 -3 2 -10 13 -9 13
-10 0 -10 -13 0 -13 -1 0 -10 13 -9 13 -11 0 -20 -11 -7 -11 -10 -2 -10 7 0
10 -4 7 -10 -3 -5 0 -10 7 -10 9 0 9 -3 -2 -10 -13 -9 -13 -11 0 -20 13 -9 13
-10 0 -10 -13 0 -13 -1 0 -10 13 -9 13 -10 0 -10 -13 0 -13 -1 0 -10 10 -6 11
-10 3 -10 -7 0 -13 -5 -13 -11 0 -5 5 -7 10 -4 6 3 10 1 10 -4 0 -6 -6 -11
-12 -11 -9 0 -8 -4 2 -10 13 -9 13 -10 0 -10 -13 0 -13 -1 0 -10 10 -6 11 -10
3 -10 -20 0 -15 -20 5 -21 14 0 14 -2 -3 -8 l-20 -8 20 -5 20 -6 -20 -1 c-17
-1 -18 -3 -5 -11 13 -9 13 -11 0 -20 -12 -8 -12 -10 5 -10 17 0 17 -2 5 -10
-13 -9 -13 -10 0 -10 12 0 13 -2 1 -9 -11 -7 -11 -9 0 -14 12 -4 11 -7 -1 -16
-13 -10 -13 -11 0 -11 13 0 13 -1 0 -10 -8 -5 -10 -10 -5 -10 6 0 11 -9 11
-20 0 -11 -5 -20 -11 -21 -5 0 -1 -4 10 -9 l20 -9 -20 0 c-17 -1 -18 -3 -5
-11 13 -9 13 -11 0 -20 -12 -8 -12 -10 5 -10 15 0 17 -2 6 -9 -11 -7 -11 -9 0
-14 9 -4 10 -6 2 -6 -7 -1 -10 -8 -7 -16 4 -9 0 -15 -7 -16 -8 0 -5 -4 6 -9
13 -6 15 -9 5 -9 -13 -1 -13 -2 0 -11 13 -9 13 -11 0 -20 -13 -9 -13 -10 0
-10 13 0 13 -1 0 -10 -9 -6 -10 -10 -3 -10 14 0 13 -40 -2 -40 -6 0 -7 -3 0
-8 16 -11 17 -34 3 -43 -9 -6 -7 -9 7 -9 11 0 16 -4 10 -8 -5 -4 -10 -14 -10
-22 0 -8 5 -18 10 -22 6 -5 4 -8 -5 -8 -13 0 -13 -1 0 -10 12 -8 13 -11 1 -19
-11 -7 -11 -9 0 -14 10 -4 10 -6 2 -6 -7 -1 -13 -6 -13 -12 0 -5 5 -7 10 -4 6
3 10 1 10 -4 0 -6 -6 -11 -12 -11 -9 0 -8 -4 2 -10 13 -9 13 -10 0 -10 -13 0
-13 -1 0 -10 13 -9 13 -11 0 -20 -13 -8 -12 -10 5 -11 11 0 14 -3 7 -6 -10 -4
-10 -8 -1 -19 9 -11 8 -14 -7 -15 -18 0 -18 -1 1 -9 11 -5 14 -9 6 -9 -11 -1
-11 -4 -1 -16 10 -12 10 -15 -1 -15 -11 0 -11 -2 1 -10 13 -9 13 -10 0 -10
-13 0 -13 -1 0 -10 13 -9 13 -11 0 -20 -10 -6 -11 -10 -2 -10 6 0 12 -9 12
-20 0 -11 -6 -20 -12 -20 -9 0 -8 -4 2 -10 8 -5 11 -10 6 -10 -5 0 -3 -7 4
-15 10 -12 10 -15 -1 -15 -9 0 -10 -3 -4 -8 6 -4 10 -14 10 -22 0 -8 -4 -18
-10 -22 -6 -5 -5 -8 3 -8 15 0 12 -31 -3 -42 -6 -5 -5 -8 4 -8 7 0 11 -6 7
-15 -3 -8 0 -15 7 -15 7 0 8 -3 2 -8 -5 -4 -10 -14 -10 -22 0 -8 5 -18 10 -22
6 -5 4 -8 -5 -8 -13 0 -13 -1 0 -10 13 -9 13 -11 0 -20 -8 -5 -10 -10 -4 -10
14 0 14 -33 0 -42 -7 -5 -4 -8 7 -8 12 0 16 -4 10 -12 -11 -19 -10 -68 2 -68
5 0 3 -5 -5 -10 -9 -6 -10 -10 -3 -10 8 0 11 -14 10 -40 -2 -22 0 -40 4 -40
10 0 5 -34 -6 -42 -6 -5 -5 -8 3 -8 6 0 12 -9 12 -20 0 -11 -6 -20 -12 -20
-10 0 -10 -2 -1 -8 7 -4 11 -18 8 -30 -2 -12 1 -24 7 -28 6 -4 5 -10 -3 -15
-10 -6 -11 -9 -1 -9 6 0 12 -9 12 -19 0 -11 -6 -22 -12 -24 -9 -4 -8 -6 2 -6
17 -1 22 -41 5 -41 -5 0 -3 -5 5 -10 13 -9 13 -11 0 -20 -13 -9 -13 -10 0 -10
12 0 13 -2 1 -9 -11 -7 -11 -9 0 -14 12 -4 11 -7 -1 -16 -12 -8 -12 -11 -1
-11 7 0 11 -6 7 -15 -3 -8 0 -15 7 -15 8 0 8 -3 -2 -9 -11 -7 -11 -9 0 -14 12
-4 11 -7 -1 -16 -9 -7 -10 -11 -3 -11 14 0 13 -40 -2 -40 -5 0 -3 -5 5 -10 13
-9 13 -11 0 -20 -12 -8 -12 -10 -1 -10 11 0 11 -3 1 -15 -10 -12 -9 -15 6 -15
11 0 15 -4 9 -8 -19 -13 -13 -42 9 -46 117 -23 145 -27 162 -25 11 2 39 -5 62
-15 48 -22 49 -40 7 -86 -25 -27 -49 -150 -26 -136 17 11 13 -5 -5 -19 -11 -8
-19 -36 -24 -91 -8 -84 -7 -95 12 -76 18 18 32 14 17 -4 -10 -12 -3 -10 21 5
19 11 35 26 35 33 0 8 10 12 25 10 18 -2 21 0 11 6 -16 12 -4 20 29 20 33 0
140 63 140 82 0 10 3 11 8 4 6 -9 296 139 436 224 36 21 40 22 62 7 23 -15 24
-17 9 -46 -9 -16 -30 -39 -48 -49 -18 -11 -26 -20 -19 -20 6 0 12 -4 12 -10 0
-5 -6 -10 -13 -10 -7 0 -21 -16 -30 -35 -9 -19 -24 -35 -33 -35 -13 0 -14 -3
-4 -15 16 -19 4 -35 -26 -35 -24 0 -64 -31 -64 -51 0 -12 53 -3 85 14 11 6 23
10 28 9 4 -1 7 3 7 8 0 6 9 10 20 10 39 0 19 -20 -74 -74 -95 -57 -118 -76
-122 -104 -2 -8 -8 -18 -14 -22 -6 -4 -10 -16 -8 -26 2 -13 -5 -20 -25 -24
-16 -3 -35 -16 -43 -30 -14 -23 -14 -23 -9 -2 4 12 2 22 -4 22 -11 0 -25 -20
-26 -37 0 -6 -30 -31 -66 -55 -36 -24 -64 -48 -62 -55 2 -6 -20 -27 -49 -46
-81 -52 -82 -54 -44 -112 18 -28 36 -63 40 -78 4 -15 11 -25 16 -22 10 6 36
-34 32 -49 -5 -17 80 -196 93 -196 15 0 40 -53 27 -58 -11 -3 38 -112 50 -109
14 3 47 -80 37 -90 -6 -6 3 -34 24 -74 19 -35 76 -145 127 -244 156 -303 344
-632 594 -1039 39 -65 44 -86 21 -86 -18 0 -20 -21 -3 -38 6 -6 9 -15 5 -18
-4 -4 -20 7 -37 24 -29 31 -48 42 -35 22 3 -5 2 -10 -3 -10 -6 0 -15 14 -21
30 -5 17 -17 33 -27 37 -9 3 -24 25 -35 49 -11 27 -23 42 -31 39 -7 -3 -23 11
-36 30 -12 20 -35 41 -50 47 -16 6 -22 12 -14 15 8 3 -4 21 -33 49 -26 24 -49
44 -52 44 -3 0 -2 -11 1 -24 3 -14 0 -28 -8 -35 -11 -10 -27 8 -82 91 -37 57
-84 135 -106 174 -23 42 -48 75 -63 82 -13 6 -35 33 -49 60 -13 26 -31 54 -40
61 -8 7 -18 25 -21 41 -3 16 -14 35 -22 42 -9 7 -29 33 -45 58 -16 25 -34 45
-41 45 -6 0 -20 18 -31 40 -10 22 -31 54 -46 71 -15 18 -30 49 -34 72 -4 26
-13 45 -26 52 -10 5 -29 38 -41 72 -14 38 -29 63 -41 66 -10 2 -18 12 -18 22
0 9 -57 131 -127 271 -118 237 -127 252 -135 224 -5 -16 -7 -43 -6 -60 1 -16
-1 -39 -5 -50 -3 -11 -9 -76 -12 -145 -4 -68 -10 -131 -14 -139 -5 -7 -6 -34
-3 -58 7 -63 -17 -225 -36 -240 -18 -15 -9 -19 113 -53 44 -12 87 -29 95 -37
13 -14 9 -15 -38 -9 -34 4 -59 3 -67 -4 -14 -12 -99 4 -122 23 -10 7 -13 -1
-13 -36 0 -49 -18 -73 -27 -37 -4 13 -11 19 -20 16 -9 -4 -13 -1 -10 6 2 7 10
12 16 11 6 -2 11 9 10 25 -1 16 -3 20 -6 10 -2 -10 -11 -18 -19 -18 -11 0 -14
-19 -14 -93 0 -51 -4 -97 -9 -102 -6 -6 -12 -44 -14 -85 -4 -58 -9 -76 -21
-78 -17 -4 -22 -34 -17 -104 1 -21 -2 -38 -6 -38 -19 0 -33 26 -34 64 -2 30
-3 34 -6 14 -6 -41 -47 -39 -62 2 -5 17 -8 37 -4 45 3 9 0 21 -6 29 -13 15
-17 225 -8 346 8 93 1 108 -41 86 -27 -14 -35 -14 -74 0 -56 20 -158 30 -158
16 0 -11 52 -32 81 -32 12 0 19 -7 19 -19 0 -19 -1 -19 -50 0 -39 15 -52 16
-55 7 -11 -35 -63 -793 -65 -940 0 -5 -6 -8 -13 -8 -8 0 -19 -10 -24 -22 -10
-22 -11 -21 -18 14 -4 22 -11 35 -18 31 -6 -4 -8 4 -4 23 3 16 1 36 -4 46 -6
10 -5 27 1 44 8 21 8 29 -2 35 -7 5 -14 21 -15 36 -1 15 -4 48 -8 73 -3 25 -7
57 -9 73 -4 36 -13 44 -21 18 -3 -12 -13 -21 -22 -21 -14 0 -15 20 -10 175 3
96 2 177 -3 180 -5 3 -6 71 -4 153 3 88 1 153 -5 162 -6 8 -24 14 -46 13 -27
-1 -35 3 -31 12 3 10 -10 16 -52 21 -31 3 -111 24 -177 45 -66 22 -126 36
-135 33 -8 -4 -19 -6 -25 -5 -93 25 -119 33 -138 45 -12 8 -38 17 -57 19 -19
2 -63 16 -97 31 -41 17 -81 26 -115 26 -29 0 -84 7 -123 16 -38 9 -86 17 -105
19 -19 2 -51 6 -71 10 -32 6 -37 4 -43 -17 -8 -25 -25 -320 -29 -488 -2 -80
-7 -113 -22 -140 -11 -21 -18 -53 -18 -82 0 -29 -5 -52 -13 -59 -8 -6 -14 -22
-14 -36 0 -13 -6 -31 -14 -39 -18 -17 -30 -18 -20 -2 11 18 12 48 2 48 -4 0
-8 17 -8 37 0 54 -7 37 -13 -32 -3 -33 -6 -61 -6 -62 -1 -2 -8 -3 -16 -3 -8 0
-15 -5 -15 -11 0 -5 4 -8 9 -5 19 12 41 -7 40 -33 0 -26 -17 -74 -19 -56 0 6
-8 -10 -16 -33 -9 -24 -13 -50 -10 -57 2 -7 -4 -50 -15 -94 -14 -59 -17 -86
-9 -100 12 -23 3 -105 -16 -143 -8 -15 -14 -40 -14 -57 0 -28 -2 -30 -32 -27
-18 2 -25 1 -15 -1 34 -9 47 -43 36 -98 -22 -110 -22 -109 -107 -149 -42 -20
-63 -34 -47 -30 84 17 80 20 47 -28 -17 -24 -51 -63 -76 -87 -25 -24 -48 -57
-51 -72 -4 -15 -22 -40 -41 -54 -20 -15 -40 -38 -45 -52 -6 -16 -15 -23 -24
-20 -8 4 -16 -2 -20 -12 -3 -10 -14 -26 -25 -36 -16 -15 -20 -15 -20 -3 0 15
-18 16 -88 2 -45 -9 -49 -21 -16 -56 l29 -30 -23 -18 c-13 -11 -18 -21 -12
-25 14 -9 1 -27 -13 -19 -7 4 -9 4 -5 -1 4 -4 2 -17 -4 -28 -10 -20 -11 -20
-29 4 -25 33 -23 119 3 119 6 0 8 -9 5 -20 -3 -11 -1 -18 4 -14 5 3 9 -7 9
-23 1 -23 2 -25 10 -12 7 12 5 26 -5 45 -8 16 -15 33 -15 37 0 9 -50 78 -63
88 -4 3 -5 13 -1 22 3 9 -1 26 -10 39 l-16 22 0 -32 c0 -18 8 -58 19 -90 44
-133 34 -334 -34 -712 -13 -74 -33 -245 -45 -380 -11 -135 -22 -253 -24 -263
-4 -16 135 -17 2805 -17 2242 0 2807 3 2804 13 -2 6 -27 106 -55 222 -28 116
-64 253 -80 306 -42 136 -56 269 -40 389 7 61 19 105 31 122 22 31 25 59 7 56
-9 -2 -12 9 -11 32 0 19 -1 27 -4 17 -7 -28 -23 -9 -23 28 0 21 6 35 16 39 24
9 25 8 18 -19 -9 -37 11 -31 30 9 20 43 20 47 -1 39 -14 -5 -12 0 6 26 20 28
21 34 9 49 -8 9 -18 25 -21 35 -5 14 -10 15 -26 5 -10 -6 -17 -17 -14 -24 2
-6 0 -15 -6 -19 -6 -3 -11 0 -12 7 -1 7 -4 2 -8 -12 -8 -24 -9 -23 -26 20 -37
90 -151 292 -299 531 -53 86 -83 155 -72 166 3 4 31 0 61 -7 30 -7 58 -10 62
-7 3 4 -1 7 -10 7 -27 0 -111 31 -131 49 -15 13 -17 26 -13 71 6 65 45 146 70
144 14 -1 17 7 17 40 0 22 -5 58 -9 80 -13 52 2 134 31 178 27 41 71 70 96 61
11 -4 14 -3 7 4 -5 6 -27 16 -47 23 -38 11 -52 30 -23 30 8 0 12 6 9 14 -3 8
-15 14 -27 13 -12 -1 -23 3 -24 8 -1 6 9 9 23 8 22 -2 24 2 24 44 0 51 26 101
66 128 20 13 23 19 13 31 -6 8 -17 14 -24 14 -6 0 -25 6 -41 14 -57 28 -71 28
-88 4 -13 -19 -16 -57 -16 -231 0 -205 0 -208 -20 -197 -16 8 -20 21 -20 56 0
55 -24 154 -50 204 -10 20 -39 59 -63 86 l-45 50 19 24 c24 30 82 140 73 140
-6 0 -64 -46 -117 -93 -91 -79 -340 -161 -422 -138 -69 18 -275 157 -275 184
0 5 -13 20 -30 33 -33 29 -90 108 -90 128 0 6 5 17 11 23 6 6 12 32 13 59 2
27 6 57 10 67 5 9 6 24 3 32 -4 8 -2 17 3 20 6 4 10 19 10 35 0 38 9 60 25 60
15 0 29 105 19 144 -4 19 -2 28 10 32 9 3 16 13 16 21 0 8 7 21 15 29 8 9 15
23 15 32 0 14 -2 14 -9 3 -8 -12 -13 -12 -33 1 -43 30 -148 136 -148 151 0 8
-13 40 -29 71 -19 38 -27 65 -22 79 10 37 108 173 142 198 17 13 47 39 66 57
19 17 41 32 49 32 8 0 19 11 24 25 5 14 16 25 24 25 9 0 20 9 26 20 6 11 17
20 25 20 8 0 32 15 52 34 21 18 50 36 64 39 18 5 34 20 46 44 12 22 28 39 40
41 12 2 29 12 39 23 9 10 22 19 29 19 7 0 32 13 56 30 24 16 51 30 60 30 9 0
22 6 28 14 6 8 33 19 59 26 26 6 57 18 70 26 20 13 22 20 16 64 -8 58 5 246
15 233 4 -4 16 -30 26 -58 10 -27 31 -76 47 -109 16 -32 28 -66 25 -75 -3 -14
7 -17 71 -19 60 -2 80 -6 97 -22 12 -11 27 -20 33 -20 6 0 33 -20 59 -45 25
-25 52 -45 59 -45 6 0 19 -11 28 -25 19 -29 33 -31 81 -8 41 19 45 33 11 33
-26 0 -56 23 -56 43 0 13 -63 57 -81 57 -13 0 -39 25 -39 38 0 18 35 24 173
29 75 3 137 9 137 12 0 13 -126 34 -223 37 -54 2 -115 8 -135 14 -60 19 -92
32 -92 39 0 19 75 42 165 51 119 12 155 19 155 30 0 17 72 32 229 46 159 14
211 23 140 25 -19 0 -151 0 -294 0 -282 -1 -327 6 -333 47 -2 12 1 22 7 22 6
0 11 5 11 10 0 6 -12 10 -27 10 -16 0 -34 4 -42 9 -22 14 -3 31 34 31 43 0
135 19 135 28 0 4 -11 16 -25 26 -14 10 -25 25 -25 32 0 18 19 27 33 16 7 -5
34 -12 60 -16 27 -3 63 -12 80 -20 50 -22 108 -39 114 -32 4 3 1 6 -6 6 -8 0
-11 6 -7 16 3 8 2 12 -4 9 -6 -4 -18 7 -28 24 -16 29 -50 55 -37 28 4 -6 0 -4
-8 5 -8 10 -52 26 -103 38 -49 12 -132 34 -184 50 -161 50 -161 65 -2 60 201
-6 187 -7 187 15 0 27 -14 45 -31 38 -8 -3 -14 -1 -14 4 0 8 -50 15 -100 15
-18 0 -131 28 -143 35 -5 3 6 20 23 38 18 19 33 44 34 57 1 19 9 25 44 32 30
7 42 15 42 27 0 10 4 21 10 24 6 4 3 16 -7 31 -12 19 -18 22 -24 12 -5 -7 -9
-8 -9 -3 0 15 -47 32 -107 40 -63 8 -61 20 10 59 64 37 77 49 77 75 0 18 -4
20 -27 15 -16 -4 -41 -20 -57 -36 -17 -15 -35 -28 -40 -28 -6 0 -17 -9 -24
-20 -7 -11 -19 -20 -26 -20 -8 0 -16 -6 -19 -12 -2 -7 -7 -10 -11 -7 -3 3 3
15 14 27 11 12 20 26 20 31 0 6 9 15 20 21 11 6 18 14 16 19 -3 4 0 40 6 80 9
64 14 75 37 85 21 9 66 35 90 53 7 5 -32 43 -44 43 -27 0 -45 37 -45 94 0 51
4 61 30 88 24 24 28 33 19 44 -12 15 -45 19 -53 6 -2 -4 -9 -55 -16 -112 -12
-115 -38 -200 -75 -245 -19 -24 -26 -28 -36 -17 -16 15 -53 15 -96 0 -38 -14
-42 -24 -13 -33 11 -3 22 -16 24 -28 26 -124 53 -304 48 -318 -9 -22 -72 -65
-126 -85 -22 -9 -90 -19 -151 -24 -60 -5 -141 -14 -180 -20 -38 -6 -162 -13
-275 -15 -351 -7 -787 -55 -1001 -111 -62 -15 -105 -18 -112 -6 -3 4 -8 43
-11 87 -3 44 -8 100 -11 125 -14 130 -24 306 -40 680 -3 69 -8 144 -11 168 -2
24 -1 54 2 67 5 21 12 25 44 25 21 0 179 20 351 44 459 66 644 79 999 74 275
-5 308 -7 479 -37 204 -35 225 -42 216 -72 -5 -13 6 -45 31 -92 35 -67 38 -80
44 -182 3 -60 10 -117 15 -125 5 -7 9 -66 10 -130 1 -125 18 -201 61 -279 13
-25 43 -85 65 -135 60 -137 172 -273 318 -390 108 -86 180 -122 290 -146 47
-11 108 -27 134 -36 26 -9 51 -14 53 -11 11 11 -26 220 -54 305 -23 67 -31
114 -36 206 -7 124 -39 285 -160 796 -116 485 -183 687 -287 863 -378 638
-415 689 -576 784 -107 62 -282 147 -423 204 -80 32 -95 42 -96 61 -1 30 -24
110 -35 124 -5 6 -3 39 6 80 18 87 19 154 1 222 -54 200 -219 289 -558 300
-120 4 -148 2 -152 -9z m-1236 -519 c0 -5 -2 -10 -4 -10 -3 0 -8 5 -11 10 -3
6 -1 10 4 10 6 0 11 -4 11 -10z m865 -396 c-9 -9 -19 -13 -23 -10 -3 4 0 11 8
16 24 15 33 11 15 -6z m-392 -382 c10 -9 16 -9 25 0 8 8 15 8 26 -1 8 -7 21
-10 28 -6 7 4 0 -5 -15 -19 -15 -14 -39 -26 -53 -26 -13 0 -34 -11 -46 -25
-12 -14 -28 -23 -35 -21 -7 3 -15 1 -18 -4 -10 -16 11 -19 38 -5 15 8 27 10
27 5 0 -13 -31 -41 -39 -35 -5 2 -16 -4 -26 -15 -19 -21 -41 -28 -29 -9 4 8
-1 9 -17 5 -21 -6 -21 -5 4 9 15 9 27 21 27 28 0 8 -4 7 -10 -3 -9 -13 -11
-13 -20 0 -5 8 -10 18 -10 22 0 11 63 60 95 74 17 7 24 13 17 14 -7 0 -22 -4
-32 -10 -13 -7 -19 -6 -24 5 -11 29 56 43 87 17z m-141 -9 c1 -4 8 -13 16 -19
13 -10 13 -14 -4 -37 -31 -42 -48 -44 -41 -3 4 24 1 36 -8 40 -9 3 -15 -4 -17
-22 l-3 -27 -20 31 c-11 17 -25 29 -32 27 -6 -2 -14 0 -16 5 -8 12 46 9 56 -3
6 -6 10 -6 14 3 2 6 12 12 21 12 15 0 15 -2 2 -10 -10 -7 -11 -10 -2 -10 7 0
15 7 19 15 5 16 14 15 15 -2z m46 -14 c12 -19 11 -19 -8 -9 -11 6 -20 15 -20
20 0 17 15 11 28 -11z m92 -129 c0 -5 -7 -7 -15 -4 -8 4 -15 8 -15 10 0 2 7 4
15 4 8 0 15 -4 15 -10z m-74 -8 c-2 -4 -1 -14 5 -22 7 -13 9 -12 9 3 0 21 14
22 34 1 21 -20 20 -34 -1 -35 -15 0 -15 -2 -3 -7 12 -6 16 -31 18 -120 l3
-113 -38 3 -38 3 -6 101 c-4 56 -9 106 -13 112 -3 6 2 13 11 15 14 4 13 5 -4
6 -29 1 -29 9 -1 38 21 23 34 31 24 15z m-506 -842 c0 -5 -5 -10 -11 -10 -5 0
-7 5 -4 10 3 6 8 10 11 10 2 0 4 -4 4 -10z m2705 -950 c3 -5 1 -10 -4 -10 -6
0 -11 5 -11 10 0 6 2 10 4 10 3 0 8 -4 11 -10z m-1119 -1077 c-10 -10 -19 5
-10 18 6 11 8 11 12 0 2 -7 1 -15 -2 -18z m-946 -1793 c0 -5 -7 -10 -15 -10
-8 0 -15 5 -15 10 0 6 7 10 15 10 8 0 15 -4 15 -10z m-2063 -272 c-3 -8 -6 -5
-6 6 -1 11 2 17 5 13 3 -3 4 -12 1 -19z m-31 -74 c-3 -8 -2 -13 3 -10 10 6 21
-71 13 -91 -6 -19 -21 -16 -20 5 0 9 -3 38 -7 65 -6 35 -4 47 5 47 7 0 10 -7
6 -16z m2184 -1251 c0 -5 -14 -9 -30 -10 -17 -1 -30 2 -30 7 0 6 14 10 30 10
17 0 30 -3 30 -7z"/>
<path d="M5738 7753 c6 -2 9 -10 6 -15 -4 -7 -2 -8 5 -4 13 9 5 26 -12 25 -9
0 -8 -2 1 -6z"/>
<path d="M5622 7498 c2 -25 8 -33 23 -33 34 0 16 64 -18 65 -5 0 -7 -15 -5
-32z"/>
<path d="M5630 7340 c0 -11 5 -20 11 -20 5 0 8 4 4 9 -3 6 3 14 12 20 16 9 16
10 -4 11 -16 0 -23 -6 -23 -20z"/>
<path d="M5486 8809 c-53 -17 -61 -18 -68 -4 -11 19 -47 19 -54 0 -4 -8 -12
-15 -20 -15 -8 0 -14 -4 -14 -9 0 -5 -9 -12 -19 -16 -27 -8 -61 -68 -50 -86 8
-12 12 -11 22 2 31 41 83 50 317 56 124 3 234 5 245 4 11 0 44 -1 72 -2 37 -1
58 -8 69 -20 20 -22 34 -16 34 14 0 49 -93 102 -124 71 -14 -14 -22 -13 -85 4
-56 16 -79 18 -113 10 -24 -5 -59 -6 -78 -3 -19 4 -44 8 -55 10 -11 2 -47 -5
-79 -16z"/>
<path d="M5471 8657 c-24 -6 -31 -11 -23 -19 6 -6 8 -17 5 -24 -4 -10 2 -13
18 -12 18 2 23 -1 21 -14 -5 -33 34 -41 167 -34 85 5 130 12 140 21 19 19 23
82 5 89 -7 3 -58 1 -111 -3 -54 -5 -118 -6 -143 -2 -25 4 -61 3 -79 -2z"/>
<path d="M6220 8656 c0 -9 5 -16 10 -16 6 0 10 4 10 9 0 6 -4 13 -10 16 -5 3
-10 -1 -10 -9z"/>
<path d="M6080 8615 c13 -14 25 -23 27 -21 8 8 -22 46 -36 46 -10 0 -7 -8 9
-25z"/>
<path d="M4975 8620 c3 -5 8 -10 11 -10 2 0 4 5 4 10 0 6 -5 10 -11 10 -5 0
-7 -4 -4 -10z"/>
<path d="M6182 8546 c7 -7 20 -12 30 -11 19 1 37 14 22 16 -62 8 -64 8 -52 -5z"/>
<path d="M5350 8370 c0 -5 5 -10 10 -10 6 0 10 5 10 10 0 6 -4 10 -10 10 -5 0
-10 -4 -10 -10z"/>
<path d="M3263 6155 c-3 -9 2 -24 11 -34 9 -10 16 -22 16 -27 0 -5 15 -16 33
-24 17 -7 35 -15 40 -18 4 -2 7 6 7 17 0 12 5 21 10 21 19 0 10 28 -15 44 -32
21 -78 39 -71 27 3 -5 -1 -12 -10 -15 -12 -4 -15 -2 -10 9 3 8 3 15 0 15 -2 0
-7 -7 -11 -15z"/>
<path d="M3302 5972 c-16 -5 3 -32 24 -32 44 0 84 -47 55 -65 -5 -3 -12 -19
-16 -35 -4 -16 -14 -34 -23 -40 -15 -8 -12 -14 21 -45 20 -20 37 -40 37 -45 0
-20 -61 -40 -118 -40 -74 0 -152 -10 -152 -20 0 -4 26 -10 57 -14 66 -8 92
-26 86 -60 -4 -19 -16 -27 -66 -41 -34 -9 -69 -19 -77 -22 -19 -6 43 -33 76
-33 29 0 40 -16 17 -24 -14 -6 -15 -9 -3 -16 11 -7 11 -11 1 -24 -9 -10 -12
-31 -8 -56 4 -30 1 -42 -11 -49 -13 -8 -14 -12 -3 -25 9 -10 10 -16 2 -16 -14
0 -43 -69 -35 -82 4 -5 15 -8 25 -5 22 6 41 -14 30 -31 -12 -20 -114 -40 -251
-49 -69 -4 -109 -9 -90 -12 29 -3 31 -5 15 -11 -12 -4 29 -10 102 -15 98 -6
121 -10 116 -21 -3 -8 -16 -17 -29 -20 -18 -5 -23 -11 -19 -24 3 -11 -2 -20
-16 -26 -20 -9 -21 -11 -5 -27 19 -19 90 -41 124 -39 40 3 19 -22 -31 -36 -28
-8 -47 -19 -47 -28 0 -8 -11 -14 -27 -15 -67 -3 -151 3 -186 12 -22 6 -44 6
-53 1 -12 -7 -3 -13 38 -25 128 -39 294 -77 338 -77 45 0 80 -17 80 -40 0 -15
-76 -38 -161 -50 -50 -7 -150 -10 -249 -7 -91 3 -149 3 -130 0 56 -7 277 -53
302 -62 18 -6 10 -10 -45 -21 -98 -18 -87 -31 38 -43 48 -5 152 -26 180 -37
18 -6 16 -9 -16 -23 -20 -8 -85 -27 -144 -42 -149 -37 -163 -44 -95 -44 31 -1
82 -8 115 -16 32 -9 75 -18 94 -21 20 -3 42 -7 49 -9 36 -12 -41 -55 -143 -79
-114 -28 -115 -30 -21 -36 57 -4 91 -10 94 -18 6 -20 34 -14 63 14 50 48 67 2
24 -66 -19 -31 -42 -48 -105 -78 -44 -21 -78 -40 -75 -43 3 -3 27 -1 54 5 57
11 86 -3 75 -37 -3 -10 0 -30 6 -43 11 -19 10 -26 0 -39 -8 -10 -10 -19 -4
-23 5 -4 14 -20 19 -37 6 -16 17 -30 25 -30 8 0 21 -4 28 -8 17 -11 -14 -49
-75 -93 l-47 -33 37 6 c24 4 42 1 53 -8 14 -11 18 -11 29 4 7 10 19 16 26 15
19 -4 18 52 -5 230 -15 120 -16 151 -6 188 14 49 9 117 -11 140 -8 9 -11 38
-10 75 2 41 -3 68 -13 83 -14 23 -13 24 24 41 71 32 83 62 62 152 -18 77 17
143 76 143 10 0 12 14 7 68 -5 51 -1 90 15 162 35 156 92 360 100 355 5 -3 22
-50 40 -105 l32 -100 -8 -154 c-9 -145 -8 -154 9 -145 12 7 17 23 18 52 0 23
6 64 12 92 11 46 15 50 51 58 38 10 142 -2 212 -24 17 -5 40 -9 51 -9 25 0 38
-27 22 -46 -7 -8 -15 -32 -19 -54 l-7 -40 41 -1 c22 -1 51 0 63 0 180 15 256
16 323 4 41 -7 83 -10 92 -7 21 6 137 -24 158 -41 8 -7 26 -16 40 -20 14 -4
57 -22 97 -41 72 -34 120 -78 127 -117 2 -12 9 -49 15 -83 6 -33 11 -89 11
-124 0 -53 -5 -71 -26 -102 -15 -21 -31 -38 -36 -38 -11 0 -111 -68 -119 -82
-3 -5 -18 -11 -33 -12 -15 -2 -37 -12 -49 -24 -12 -11 -36 -23 -54 -27 -17 -3
-37 -12 -43 -20 -6 -7 -22 -16 -36 -19 -56 -14 -141 -62 -175 -98 -24 -25 -45
-38 -63 -38 -14 0 -26 -5 -26 -10 0 -14 -62 -51 -76 -46 -14 5 -107 -31 -144
-56 -14 -9 -37 -20 -52 -23 -37 -9 -28 -21 22 -29 22 -3 40 -11 40 -17 0 -7
10 -9 26 -5 15 4 32 2 40 -5 8 -7 27 -13 42 -15 48 -4 97 -16 111 -27 15 -13
29 -17 84 -24 20 -3 37 -9 37 -13 0 -9 72 -38 330 -132 141 -52 181 -63 243
-67 5 -1 6 -5 3 -10 -3 -4 6 -13 21 -20 38 -17 45 -4 48 94 1 22 11 103 22
180 45 304 50 441 17 507 -22 42 -18 68 9 68 13 0 28 5 35 12 7 7 42 12 81 12
86 1 109 -17 135 -103 11 -38 24 -61 35 -64 15 -4 17 -14 14 -68 -8 -127 -11
-155 -22 -204 -7 -27 -12 -78 -12 -113 0 -35 -4 -60 -10 -57 -9 6 -10 -3 -14
-114 -2 -35 -7 -66 -13 -70 -9 -5 -32 -133 -32 -176 0 -11 248 -111 256 -103
3 4 12 180 19 373 3 83 10 186 16 230 18 133 19 183 3 189 -8 3 -14 12 -14 21
0 8 -7 15 -15 15 -17 0 -17 0 -21 49 -2 35 36 111 56 111 6 0 10 9 10 20 0 10
11 30 24 43 21 21 26 41 37 133 7 60 12 125 11 144 -1 52 38 314 48 320 4 3
12 21 17 40 7 25 16 36 31 38 12 2 20 8 17 13 -4 5 -1 9 6 9 8 0 8 4 -1 15
-10 12 -10 15 1 15 11 0 11 2 -1 10 -13 9 -13 11 0 20 8 5 10 10 5 10 -15 0
-16 40 -2 40 7 0 6 4 -3 10 -13 9 -13 11 0 20 13 8 12 10 -5 11 -11 0 -14 3
-7 6 10 4 10 8 1 19 -9 11 -8 14 2 14 9 0 10 3 4 8 -5 4 -10 14 -10 22 0 8 5
18 10 22 6 5 5 8 -4 8 -7 0 -11 6 -8 14 3 8 1 17 -6 20 -8 3 -8 5 2 5 11 1 11
4 1 16 -10 12 -10 15 1 15 9 0 10 3 4 8 -16 11 -17 34 -3 43 10 6 8 9 -6 9
-15 0 -16 3 -6 15 10 12 10 15 -1 15 -12 0 -12 2 0 9 11 7 11 9 0 14 -12 4
-11 7 1 16 12 8 12 11 1 11 -9 0 -12 8 -9 25 3 14 1 25 -5 25 -5 0 -4 7 3 15
10 12 10 15 -1 15 -11 0 -11 2 1 10 12 7 12 10 1 10 -7 0 -11 6 -7 15 3 8 0
15 -7 15 -8 0 -11 -17 -9 -55 2 -31 1 -62 -1 -70 -8 -18 -47 -7 -47 14 0 9 -3
12 -8 6 -4 -7 -141 -12 -392 -13 -212 -2 -502 -6 -645 -10 -143 -4 -314 -3
-380 1 -66 4 -178 9 -250 10 -79 1 -138 7 -150 14 -11 6 -58 22 -105 33 -88
23 -132 41 -162 68 -22 19 -26 143 -5 160 20 17 230 120 259 127 25 6 26 8 11
23 -27 28 -142 22 -248 -13 -49 -16 -96 -35 -104 -43 -12 -12 -16 -10 -27 10
-7 12 -16 39 -19 59 -5 29 -10 36 -24 32 -10 -3 -34 0 -52 5 -19 5 -40 7 -47
4z m1938 -802 c0 -5 16 -17 35 -26 21 -10 35 -23 35 -35 0 -10 4 -20 9 -24 6
-3 6 7 0 27 -12 42 -12 55 0 43 33 -35 59 -354 40 -479 -12 -75 -31 -87 -138
-83 -62 2 -93 8 -113 20 -24 16 -26 23 -22 70 10 145 13 169 18 175 3 3 6 18
6 34 0 15 5 28 10 28 6 0 10 13 10 29 0 17 4 32 10 36 5 3 7 12 3 20 -6 18 13
20 21 3 3 -7 4 6 1 30 -3 23 -1 42 4 42 6 0 11 17 13 38 2 23 8 36 16 35 6 -2
12 4 12 12 0 8 7 15 15 15 8 0 15 -4 15 -10z m-740 -1510 c0 -5 -2 -10 -4 -10
-3 0 -8 5 -11 10 -3 6 -1 10 4 10 6 0 11 -4 11 -10z"/>
<path d="M5688 5665 c3 -28 9 -45 17 -45 15 0 15 31 0 42 -6 5 -4 8 5 8 13 0
13 1 0 10 -13 9 -13 11 0 20 12 8 12 10 -5 10 -18 0 -20 -5 -17 -45z"/>
<path d="M8100 5541 c0 -5 5 -13 10 -16 6 -3 10 -2 10 4 0 5 -4 13 -10 16 -5
3 -10 2 -10 -4z"/>
<path d="M2755 4850 c28 -12 47 -12 40 0 -3 6 -18 10 -33 9 -24 0 -25 -1 -7
-9z"/>
<path d="M2333 4693 c9 -2 25 -2 35 0 9 3 1 5 -18 5 -19 0 -27 -2 -17 -5z"/>
<path d="M2648 4653 c7 -3 16 -2 19 1 4 3 -2 6 -13 5 -11 0 -14 -3 -6 -6z"/>
<path d="M4207 4554 c-1 -1 -65 -5 -141 -8 -77 -3 -141 -8 -143 -10 -2 -2 -8
-54 -13 -117 -5 -63 -14 -172 -20 -243 -6 -70 -9 -131 -6 -134 3 -3 14 1 23 9
10 8 32 21 48 28 17 7 41 19 55 27 14 7 37 19 53 25 15 6 27 15 27 20 0 5 8 9
18 9 24 0 70 33 65 46 -2 7 6 10 22 7 14 -3 31 -1 38 5 6 6 49 29 94 51 44 23
86 48 93 56 6 7 25 17 41 20 16 4 31 11 35 16 3 5 20 16 37 25 104 49 122 66
106 95 -12 23 -55 36 -168 49 -52 6 -99 14 -105 18 -9 6 -153 11 -159 6z m-72
-364 c3 -5 -1 -10 -10 -10 -9 0 -13 5 -10 10 3 6 8 10 10 10 2 0 7 -4 10 -10z"/>
<path d="M7915 4553 c-11 -2 -44 -11 -74 -19 l-53 -15 6 -97 c4 -53 3 -129 -3
-169 -10 -79 1 -315 20 -444 10 -64 15 -77 26 -68 7 6 13 22 13 34 0 12 11 39
25 59 14 21 31 52 39 70 8 19 19 37 25 40 6 4 11 24 11 45 0 24 9 49 25 71 34
45 32 56 -14 79 -48 25 -101 69 -101 85 0 8 17 10 63 5 34 -3 65 -4 69 -2 4 2
1 15 -8 27 -14 23 -14 24 16 34 16 6 30 15 30 20 0 9 -43 32 -61 32 -19 0 -69
41 -69 56 0 8 10 19 23 25 13 6 27 20 32 32 7 16 20 23 48 25 36 3 45 15 29
38 -6 9 -88 46 -95 43 -1 -1 -11 -3 -22 -6z"/>
<path d="M3566 4423 c-14 -196 -17 -328 -7 -312 5 8 11 37 12 65 1 27 5 69 10
94 4 25 10 89 13 143 4 77 3 97 -8 97 -9 0 -15 -25 -20 -87z"/>
<path d="M7625 4433 c-33 -20 -91 -54 -129 -77 -37 -23 -79 -47 -92 -54 -13
-7 -29 -23 -35 -35 -7 -12 -27 -39 -44 -60 -18 -21 -47 -66 -65 -100 -18 -34
-38 -69 -45 -77 -12 -13 -38 -76 -97 -225 -24 -60 -52 -209 -68 -363 -12 -113
-1 -274 20 -296 15 -15 103 19 210 81 111 65 188 121 189 138 1 14 62 50 79
47 7 -2 19 13 27 32 9 20 19 36 23 36 15 0 92 76 92 91 0 7 12 23 28 35 l27
22 -1 279 c-1 346 -21 566 -51 562 -5 0 -35 -17 -68 -36z"/>
<path d="M3580 3960 c-7 -33 -11 -63 -8 -66 3 -2 11 23 17 57 7 33 10 63 8 65
-2 3 -10 -23 -17 -56z"/>
<path d="M7018 3936 c-40 -47 -65 -92 -55 -102 9 -9 56 29 57 45 0 8 6 22 14
30 11 14 31 72 24 71 -2 -1 -20 -20 -40 -44z"/>
<path d="M3263 3448 c-38 -27 -40 -34 -13 -43 11 -3 20 -10 20 -13 0 -18 -32
-50 -60 -62 -37 -15 -38 -26 -5 -34 14 -4 25 -13 25 -21 0 -8 13 -15 33 -17
28 -3 32 -6 29 -31 -1 -15 -18 -42 -37 -62 -42 -41 -38 -65 11 -65 31 0 34 3
34 30 0 19 6 33 16 37 13 5 15 18 10 87 -14 175 -18 216 -25 216 -3 0 -21 -10
-38 -22z"/>
<path d="M7940 3305 c-44 -47 -47 -62 -30 -165 8 -52 18 -100 22 -106 4 -6 18
-9 31 -7 18 4 24 11 24 31 0 15 3 34 6 42 4 8 8 44 9 80 3 56 6 65 23 69 11 2
31 8 45 13 24 9 23 11 -30 38 -68 36 -71 36 -100 5z"/>
<path d="M3365 3043 c-11 -12 -61 -42 -112 -67 -86 -43 -111 -61 -100 -72 2
-3 33 -9 68 -15 35 -6 66 -12 68 -15 3 -3 5 -30 6 -60 0 -58 18 -84 56 -84 10
0 21 -9 24 -21 13 -42 16 -9 4 51 -6 34 -22 77 -35 96 -36 52 -30 88 23 146
14 14 23 34 21 44 -3 17 -5 17 -23 -3z"/>
<path d="M3637 2850 c-3 -11 -1 -20 4 -20 5 0 9 9 9 20 0 11 -2 20 -4 20 -2 0
-6 -9 -9 -20z"/>
<path d="M2627 2839 c34 -4 83 -4 110 1 39 6 27 8 -62 8 -100 -1 -104 -1 -48
-9z"/>
<path d="M3606 2821 c-4 -5 -2 -12 3 -15 5 -4 12 -2 15 3 4 5 2 12 -3 15 -5 4
-12 2 -15 -3z"/>
<path d="M3390 2621 c0 -12 -19 -42 -42 -67 -34 -37 -39 -47 -27 -55 8 -5 21
-9 29 -9 8 0 26 -6 40 -13 l25 -13 -6 83 c-4 46 -10 87 -13 90 -3 4 -6 -4 -6
-16z"/>
<path d="M3471 2607 c-7 -14 -11 -33 -7 -43 11 -28 28 -1 24 36 l-3 34 -14
-27z"/>
<path d="M3410 2415 c-7 -9 -27 -23 -43 -31 -34 -18 -31 -29 5 -15 19 7 31 6
47 -5 20 -14 21 -14 20 8 0 13 -4 31 -8 41 -6 18 -8 18 -21 2z"/>
<path d="M3447 2203 c-23 -63 -22 -82 2 -76 14 3 21 -3 29 -26 14 -38 32 -40
32 -3 0 64 -13 132 -26 132 -7 0 -14 5 -16 11 -2 6 -11 -11 -21 -38z"/>
<path d="M2840 2230 c-8 -5 -10 -10 -5 -10 6 0 17 5 25 10 8 5 11 10 5 10 -5
0 -17 -5 -25 -10z"/>
<path d="M2725 2210 c-16 -4 -23 -9 -15 -10 9 -1 5 -6 -10 -11 -19 -6 -15 -7
15 -3 22 3 51 12 65 19 l25 14 -25 -1 c-14 0 -38 -4 -55 -8z"/>
<path d="M2620 2160 c0 -11 4 -20 9 -20 5 0 7 9 4 20 -3 11 -7 20 -9 20 -2 0
-4 -9 -4 -20z"/>
<path d="M2778 2153 c7 -3 16 -2 19 1 4 3 -2 6 -13 5 -11 0 -14 -3 -6 -6z"/>
<path d="M8320 1900 c14 -4 32 -8 40 -9 13 -1 13 0 0 9 -8 5 -26 9 -40 9 l-25
-1 25 -8z"/>
<path d="M8388 1883 c7 -3 16 -2 19 1 4 3 -2 6 -13 5 -11 0 -14 -3 -6 -6z"/>
<path d="M8433 1873 c9 -2 23 -2 30 0 6 3 -1 5 -18 5 -16 0 -22 -2 -12 -5z"/>
<path d="M3320 1710 c-9 -6 -10 -10 -3 -10 6 0 15 5 18 10 8 12 4 12 -15 0z"/>
<path d="M3180 1656 c-30 -12 -112 -40 -182 -61 -128 -39 -128 -39 -128 -70
l1 -30 14 25 c13 23 14 23 15 5 1 -11 4 -14 7 -7 2 6 13 12 24 12 11 0 38 11
60 25 26 17 47 24 61 19 13 -4 18 -2 14 4 -3 6 2 8 12 5 12 -3 25 4 36 21 9
14 22 26 29 26 6 0 35 11 62 24 63 30 48 31 -25 2z"/>
<path d="M2914 1496 c-3 -8 4 -36 15 -63 10 -26 22 -55 25 -63 6 -16 2 31 -9
98 -8 42 -21 54 -31 28z"/>
<path d="M3020 1444 c0 -7 -3 -19 -6 -28 -5 -13 1 -16 25 -16 31 0 41 19 23
46 -10 15 -42 14 -42 -2z"/>
<path d="M8407 1373 c-4 -3 -7 -11 -7 -17 0 -6 5 -5 12 2 6 6 9 14 7 17 -3 3
-9 2 -12 -2z"/>
</g>
</svg>
